<mxfile modified="2020-09-03T12:16:48.910Z" host="app.diagrams.net" agent="5.0 (Windows)" etag="mQaYjbxZWYJVwMDl72CX" version="13.6.6" type="github">
  <diagram id="Ht1M8jgEwFfnCIfOTk4-" name="Page-1">
    <mxGraphModel dx="1422" dy="735" grid="1" gridSize="10" guides="1" tooltips="1" connect="1" arrows="1" fold="1" page="1" pageScale="1" pageWidth="1169" pageHeight="827" math="0" shadow="0">
      <root>
        <mxCell id="0" />
        <mxCell id="1" parent="0" />
        <mxCell id="-QjtrjUzRDEMRZ5MF8oH-47" value="Devhub Landscape" style="text;html=1;resizable=0;points=[];autosize=1;align=left;verticalAlign=top;spacingTop=-4;fontSize=30;fontStyle=1" parent="1" vertex="1">
          <mxGeometry x="56.5" y="64.5" width="290" height="40" as="geometry" />
        </mxCell>
        <mxCell id="SCVMTBWpLvtzJIhz15lM-1" value="" style="line;strokeWidth=2;html=1;fontSize=14;" parent="1" vertex="1">
          <mxGeometry x="55" y="104.5" width="1060" height="10" as="geometry" />
        </mxCell>
        <mxCell id="7OVz4w7n9kzEPWy-4BBC-3" value="" style="rounded=0;whiteSpace=wrap;html=1;fillColor=#EAEDED;fontSize=22;fontColor=#FFFFFF;strokeColor=none;labelBackgroundColor=none;" parent="1" vertex="1">
          <mxGeometry x="1151" y="51" width="539" height="1220" as="geometry" />
        </mxCell>
        <mxCell id="7OVz4w7n9kzEPWy-4BBC-4" value="1" style="rounded=1;whiteSpace=wrap;html=1;fillColor=#007CBD;strokeColor=none;fontColor=#FFFFFF;fontStyle=1;fontSize=22;labelBackgroundColor=none;" parent="1" vertex="1">
          <mxGeometry x="1169" y="63" width="40" height="38" as="geometry" />
        </mxCell>
        <mxCell id="7OVz4w7n9kzEPWy-4BBC-5" value="2" style="rounded=1;whiteSpace=wrap;html=1;fillColor=#007CBD;strokeColor=none;fontColor=#FFFFFF;fontStyle=1;fontSize=22;labelBackgroundColor=none;" parent="1" vertex="1">
          <mxGeometry x="1167.5" y="185" width="40" height="38" as="geometry" />
        </mxCell>
        <mxCell id="7OVz4w7n9kzEPWy-4BBC-6" value="3" style="rounded=1;whiteSpace=wrap;html=1;fillColor=#007CBD;strokeColor=none;fontColor=#FFFFFF;fontStyle=1;fontSize=22;labelBackgroundColor=none;" parent="1" vertex="1">
          <mxGeometry x="1167.5" y="305" width="40" height="38" as="geometry" />
        </mxCell>
        <mxCell id="7OVz4w7n9kzEPWy-4BBC-7" value="4" style="rounded=1;whiteSpace=wrap;html=1;fillColor=#007CBD;strokeColor=none;fontColor=#FFFFFF;fontStyle=1;fontSize=22;labelBackgroundColor=none;" parent="1" vertex="1">
          <mxGeometry x="1167.5" y="419" width="40" height="38" as="geometry" />
        </mxCell>
        <mxCell id="7OVz4w7n9kzEPWy-4BBC-8" value="5" style="rounded=1;whiteSpace=wrap;html=1;fillColor=#007CBD;strokeColor=none;fontColor=#FFFFFF;fontStyle=1;fontSize=22;labelBackgroundColor=none;" parent="1" vertex="1">
          <mxGeometry x="1169" y="536" width="40" height="38" as="geometry" />
        </mxCell>
        <mxCell id="7OVz4w7n9kzEPWy-4BBC-9" value="6" style="rounded=1;whiteSpace=wrap;html=1;fillColor=#007CBD;strokeColor=none;fontColor=#FFFFFF;fontStyle=1;fontSize=22;labelBackgroundColor=none;" parent="1" vertex="1">
          <mxGeometry x="1170" y="651" width="40" height="38" as="geometry" />
        </mxCell>
        <mxCell id="7OVz4w7n9kzEPWy-4BBC-10" value="7" style="rounded=1;whiteSpace=wrap;html=1;fillColor=#007CBD;strokeColor=none;fontColor=#FFFFFF;fontStyle=1;fontSize=22;labelBackgroundColor=none;" parent="1" vertex="1">
          <mxGeometry x="1169.5" y="767" width="40" height="38" as="geometry" />
        </mxCell>
        <mxCell id="7OVz4w7n9kzEPWy-4BBC-11" value="8" style="rounded=1;whiteSpace=wrap;html=1;fillColor=#007CBD;strokeColor=none;fontColor=#FFFFFF;fontStyle=1;fontSize=22;labelBackgroundColor=none;" parent="1" vertex="1">
          <mxGeometry x="1170" y="885" width="40" height="38" as="geometry" />
        </mxCell>
        <mxCell id="7OVz4w7n9kzEPWy-4BBC-12" value="9" style="rounded=1;whiteSpace=wrap;html=1;fillColor=#007CBD;strokeColor=none;fontColor=#FFFFFF;fontStyle=1;fontSize=22;labelBackgroundColor=none;" parent="1" vertex="1">
          <mxGeometry x="1168" y="1005" width="40" height="38" as="geometry" />
        </mxCell>
        <mxCell id="7OVz4w7n9kzEPWy-4BBC-13" value="User prepares and submits import order via CLI" style="text;html=1;align=left;verticalAlign=top;spacingTop=-4;fontSize=14;labelBackgroundColor=none;whiteSpace=wrap;" parent="1" vertex="1">
          <mxGeometry x="1220.5" y="62.5" width="449" height="118" as="geometry" />
        </mxCell>
        <mxCell id="7OVz4w7n9kzEPWy-4BBC-22" value="10" style="rounded=1;whiteSpace=wrap;html=1;fillColor=#007CBD;strokeColor=none;fontColor=#FFFFFF;fontStyle=1;fontSize=22;labelBackgroundColor=none;" parent="1" vertex="1">
          <mxGeometry x="1169" y="1130.5" width="40" height="38" as="geometry" />
        </mxCell>
        <mxCell id="YMLBn4pS1Gdzr_e9DGU7-35" style="edgeStyle=orthogonalEdgeStyle;rounded=0;orthogonalLoop=1;jettySize=auto;html=1;entryX=0;entryY=0.5;entryDx=0;entryDy=0;startArrow=none;startFill=0;" edge="1" parent="1" source="YMLBn4pS1Gdzr_e9DGU7-1" target="YMLBn4pS1Gdzr_e9DGU7-33">
          <mxGeometry relative="1" as="geometry">
            <Array as="points">
              <mxPoint x="270" y="150" />
              <mxPoint x="470" y="150" />
              <mxPoint x="470" y="203" />
            </Array>
          </mxGeometry>
        </mxCell>
        <mxCell id="YMLBn4pS1Gdzr_e9DGU7-42" style="edgeStyle=orthogonalEdgeStyle;rounded=0;orthogonalLoop=1;jettySize=auto;html=1;startArrow=none;startFill=0;" edge="1" parent="1" source="YMLBn4pS1Gdzr_e9DGU7-1" target="YMLBn4pS1Gdzr_e9DGU7-23">
          <mxGeometry relative="1" as="geometry" />
        </mxCell>
        <mxCell id="YMLBn4pS1Gdzr_e9DGU7-47" style="edgeStyle=orthogonalEdgeStyle;rounded=0;orthogonalLoop=1;jettySize=auto;html=1;startArrow=none;startFill=0;exitX=0.94;exitY=0.418;exitDx=0;exitDy=0;exitPerimeter=0;" edge="1" parent="1" source="YMLBn4pS1Gdzr_e9DGU7-1" target="YMLBn4pS1Gdzr_e9DGU7-36">
          <mxGeometry relative="1" as="geometry">
            <Array as="points">
              <mxPoint x="314" y="320" />
              <mxPoint x="620" y="320" />
            </Array>
          </mxGeometry>
        </mxCell>
        <mxCell id="YMLBn4pS1Gdzr_e9DGU7-52" style="edgeStyle=orthogonalEdgeStyle;rounded=0;orthogonalLoop=1;jettySize=auto;html=1;startArrow=none;startFill=0;exitX=0.87;exitY=0.736;exitDx=0;exitDy=0;exitPerimeter=0;" edge="1" parent="1" source="YMLBn4pS1Gdzr_e9DGU7-1" target="YMLBn4pS1Gdzr_e9DGU7-51">
          <mxGeometry relative="1" as="geometry">
            <Array as="points">
              <mxPoint x="590" y="400" />
              <mxPoint x="590" y="420" />
              <mxPoint x="910" y="420" />
            </Array>
          </mxGeometry>
        </mxCell>
        <mxCell id="YMLBn4pS1Gdzr_e9DGU7-60" style="edgeStyle=orthogonalEdgeStyle;rounded=0;orthogonalLoop=1;jettySize=auto;html=1;exitX=0.1;exitY=0.2;exitDx=0;exitDy=0;exitPerimeter=0;startArrow=none;startFill=0;" edge="1" parent="1" source="YMLBn4pS1Gdzr_e9DGU7-1">
          <mxGeometry relative="1" as="geometry">
            <mxPoint x="160" y="250" as="targetPoint" />
          </mxGeometry>
        </mxCell>
        <mxCell id="YMLBn4pS1Gdzr_e9DGU7-1" value="" style="html=1;dashed=0;whitespace=wrap;fillColor=#2875E2;strokeColor=#ffffff;points=[[0.005,0.63,0],[0.1,0.2,0],[0.9,0.2,0],[0.5,0,0],[0.995,0.63,0],[0.72,0.99,0],[0.5,1,0],[0.28,0.99,0]];shape=mxgraph.kubernetes.icon;prIcon=pod" vertex="1" parent="1">
          <mxGeometry x="220" y="320" width="100" height="110" as="geometry" />
        </mxCell>
        <mxCell id="YMLBn4pS1Gdzr_e9DGU7-2" value="Devhub" style="text;html=1;align=center;verticalAlign=middle;resizable=0;points=[];autosize=1;" vertex="1" parent="1">
          <mxGeometry x="240" y="305" width="60" height="20" as="geometry" />
        </mxCell>
        <mxCell id="YMLBn4pS1Gdzr_e9DGU7-7" style="edgeStyle=orthogonalEdgeStyle;rounded=0;orthogonalLoop=1;jettySize=auto;html=1;entryX=0.5;entryY=1;entryDx=0;entryDy=0;entryPerimeter=0;startArrow=classicThin;startFill=1;" edge="1" parent="1" source="YMLBn4pS1Gdzr_e9DGU7-3" target="YMLBn4pS1Gdzr_e9DGU7-1">
          <mxGeometry relative="1" as="geometry" />
        </mxCell>
        <mxCell id="YMLBn4pS1Gdzr_e9DGU7-3" value="" style="pointerEvents=1;shadow=0;dashed=0;html=1;strokeColor=none;fillColor=#005F4B;labelPosition=center;verticalLabelPosition=bottom;verticalAlign=top;align=center;outlineConnect=0;shape=mxgraph.veeam2.command_line;" vertex="1" parent="1">
          <mxGeometry x="245" y="520" width="50" height="50" as="geometry" />
        </mxCell>
        <mxCell id="YMLBn4pS1Gdzr_e9DGU7-8" value="Devhub" style="text;html=1;align=center;verticalAlign=middle;resizable=0;points=[];autosize=1;" vertex="1" parent="1">
          <mxGeometry x="240" y="305" width="60" height="20" as="geometry" />
        </mxCell>
        <mxCell id="YMLBn4pS1Gdzr_e9DGU7-9" value="Devhub" style="text;html=1;align=center;verticalAlign=middle;resizable=0;points=[];autosize=1;" vertex="1" parent="1">
          <mxGeometry x="240" y="305" width="60" height="20" as="geometry" />
        </mxCell>
        <mxCell id="YMLBn4pS1Gdzr_e9DGU7-10" value="Devhub" style="text;html=1;align=center;verticalAlign=middle;resizable=0;points=[];autosize=1;" vertex="1" parent="1">
          <mxGeometry x="240" y="305" width="60" height="20" as="geometry" />
        </mxCell>
        <mxCell id="YMLBn4pS1Gdzr_e9DGU7-11" value="Devhub CLI" style="text;html=1;align=center;verticalAlign=middle;resizable=0;points=[];autosize=1;" vertex="1" parent="1">
          <mxGeometry x="230" y="574" width="80" height="20" as="geometry" />
        </mxCell>
        <mxCell id="YMLBn4pS1Gdzr_e9DGU7-12" value="&lt;div&gt;Communication&lt;/div&gt;&lt;div&gt;to Devhub via CLI&lt;br&gt;&lt;/div&gt;" style="text;html=1;align=center;verticalAlign=middle;resizable=0;points=[];autosize=1;" vertex="1" parent="1">
          <mxGeometry x="270" y="457" width="110" height="30" as="geometry" />
        </mxCell>
        <mxCell id="YMLBn4pS1Gdzr_e9DGU7-17" style="edgeStyle=orthogonalEdgeStyle;rounded=0;orthogonalLoop=1;jettySize=auto;html=1;entryX=0.5;entryY=1.15;entryDx=0;entryDy=0;entryPerimeter=0;startArrow=none;startFill=0;" edge="1" parent="1" source="YMLBn4pS1Gdzr_e9DGU7-13" target="YMLBn4pS1Gdzr_e9DGU7-11">
          <mxGeometry relative="1" as="geometry" />
        </mxCell>
        <mxCell id="YMLBn4pS1Gdzr_e9DGU7-13" value="" style="verticalLabelPosition=bottom;html=1;verticalAlign=top;align=center;strokeColor=none;fillColor=#00BEF2;shape=mxgraph.azure.code_file;pointerEvents=1;" vertex="1" parent="1">
          <mxGeometry x="246.25" y="660" width="47.5" height="50" as="geometry" />
        </mxCell>
        <mxCell id="YMLBn4pS1Gdzr_e9DGU7-18" value="Devhub CLI" style="text;html=1;align=center;verticalAlign=middle;resizable=0;points=[];autosize=1;" vertex="1" parent="1">
          <mxGeometry x="230" y="574" width="80" height="20" as="geometry" />
        </mxCell>
        <mxCell id="YMLBn4pS1Gdzr_e9DGU7-19" value="Import Order" style="text;html=1;align=center;verticalAlign=middle;resizable=0;points=[];autosize=1;" vertex="1" parent="1">
          <mxGeometry x="230" y="720" width="80" height="20" as="geometry" />
        </mxCell>
        <mxCell id="YMLBn4pS1Gdzr_e9DGU7-20" value="1" style="rounded=1;whiteSpace=wrap;html=1;fillColor=#007CBD;strokeColor=none;fontColor=#FFFFFF;fontStyle=1;fontSize=22;labelBackgroundColor=none;" vertex="1" parent="1">
          <mxGeometry x="1169" y="63" width="40" height="38" as="geometry" />
        </mxCell>
        <mxCell id="YMLBn4pS1Gdzr_e9DGU7-25" style="edgeStyle=orthogonalEdgeStyle;rounded=0;orthogonalLoop=1;jettySize=auto;html=1;startArrow=none;startFill=0;" edge="1" parent="1" source="YMLBn4pS1Gdzr_e9DGU7-21">
          <mxGeometry relative="1" as="geometry">
            <mxPoint x="300" y="685" as="targetPoint" />
          </mxGeometry>
        </mxCell>
        <mxCell id="YMLBn4pS1Gdzr_e9DGU7-38" style="edgeStyle=orthogonalEdgeStyle;rounded=0;orthogonalLoop=1;jettySize=auto;html=1;startArrow=none;startFill=0;" edge="1" parent="1" source="YMLBn4pS1Gdzr_e9DGU7-21">
          <mxGeometry relative="1" as="geometry">
            <mxPoint x="720" y="600" as="targetPoint" />
          </mxGeometry>
        </mxCell>
        <mxCell id="YMLBn4pS1Gdzr_e9DGU7-21" value="" style="shape=image;html=1;verticalAlign=top;verticalLabelPosition=bottom;labelBackgroundColor=#ffffff;imageAspect=0;aspect=fixed;image=https://cdn0.iconfinder.com/data/icons/social-glyph/30/github-120.png" vertex="1" parent="1">
          <mxGeometry x="420" y="653.75" width="62.5" height="62.5" as="geometry" />
        </mxCell>
        <mxCell id="YMLBn4pS1Gdzr_e9DGU7-22" value="App Repo" style="text;html=1;align=center;verticalAlign=middle;resizable=0;points=[];autosize=1;" vertex="1" parent="1">
          <mxGeometry x="416.25" y="730" width="70" height="20" as="geometry" />
        </mxCell>
        <mxCell id="YMLBn4pS1Gdzr_e9DGU7-40" style="edgeStyle=orthogonalEdgeStyle;rounded=0;orthogonalLoop=1;jettySize=auto;html=1;startArrow=none;startFill=0;" edge="1" parent="1" source="YMLBn4pS1Gdzr_e9DGU7-23">
          <mxGeometry relative="1" as="geometry">
            <mxPoint x="670" y="559" as="targetPoint" />
            <Array as="points">
              <mxPoint x="620" y="445" />
              <mxPoint x="620" y="559" />
            </Array>
          </mxGeometry>
        </mxCell>
        <mxCell id="YMLBn4pS1Gdzr_e9DGU7-23" value="" style="shape=image;html=1;verticalAlign=top;verticalLabelPosition=bottom;labelBackgroundColor=#ffffff;imageAspect=0;aspect=fixed;image=https://cdn0.iconfinder.com/data/icons/social-glyph/30/github-120.png;imageBackground=#ffffff;" vertex="1" parent="1">
          <mxGeometry x="416.25" y="414" width="62.5" height="62.5" as="geometry" />
        </mxCell>
        <mxCell id="YMLBn4pS1Gdzr_e9DGU7-24" value="Gitops Repo" style="text;html=1;align=center;verticalAlign=middle;resizable=0;points=[];autosize=1;" vertex="1" parent="1">
          <mxGeometry x="411.25" y="487" width="80" height="20" as="geometry" />
        </mxCell>
        <mxCell id="YMLBn4pS1Gdzr_e9DGU7-28" value="" style="html=1;dashed=0;whitespace=wrap;fillColor=#2875E2;strokeColor=#ffffff;points=[[0.005,0.63,0],[0.1,0.2,0],[0.9,0.2,0],[0.5,0,0],[0.995,0.63,0],[0.72,0.99,0],[0.5,1,0],[0.28,0.99,0]];shape=mxgraph.kubernetes.icon;prIcon=ns" vertex="1" parent="1">
          <mxGeometry x="680" y="147" width="50" height="48" as="geometry" />
        </mxCell>
        <mxCell id="YMLBn4pS1Gdzr_e9DGU7-29" value="" style="html=1;dashed=0;whitespace=wrap;fillColor=#2875E2;strokeColor=#ffffff;points=[[0.005,0.63,0],[0.1,0.2,0],[0.9,0.2,0],[0.5,0,0],[0.995,0.63,0],[0.72,0.99,0],[0.5,1,0],[0.28,0.99,0]];shape=mxgraph.kubernetes.icon;prIcon=cm" vertex="1" parent="1">
          <mxGeometry x="650" y="202.13" width="50" height="48" as="geometry" />
        </mxCell>
        <mxCell id="YMLBn4pS1Gdzr_e9DGU7-30" value="" style="html=1;dashed=0;whitespace=wrap;fillColor=#2875E2;strokeColor=#ffffff;points=[[0.005,0.63,0],[0.1,0.2,0],[0.9,0.2,0],[0.5,0,0],[0.995,0.63,0],[0.72,0.99,0],[0.5,1,0],[0.28,0.99,0]];shape=mxgraph.kubernetes.icon;prIcon=ns" vertex="1" parent="1">
          <mxGeometry x="620" y="147" width="50" height="48" as="geometry" />
        </mxCell>
        <mxCell id="YMLBn4pS1Gdzr_e9DGU7-31" value="" style="html=1;dashed=0;whitespace=wrap;fillColor=#2875E2;strokeColor=#ffffff;points=[[0.005,0.63,0],[0.1,0.2,0],[0.9,0.2,0],[0.5,0,0],[0.995,0.63,0],[0.72,0.99,0],[0.5,1,0],[0.28,0.99,0]];shape=mxgraph.kubernetes.icon;prIcon=ns" vertex="1" parent="1">
          <mxGeometry x="740" y="147" width="50" height="48" as="geometry" />
        </mxCell>
        <mxCell id="YMLBn4pS1Gdzr_e9DGU7-32" value="" style="html=1;dashed=0;whitespace=wrap;fillColor=#2875E2;strokeColor=#ffffff;points=[[0.005,0.63,0],[0.1,0.2,0],[0.9,0.2,0],[0.5,0,0],[0.995,0.63,0],[0.72,0.99,0],[0.5,1,0],[0.28,0.99,0]];shape=mxgraph.kubernetes.icon;prIcon=pod" vertex="1" parent="1">
          <mxGeometry x="710" y="202.13" width="50" height="48" as="geometry" />
        </mxCell>
        <mxCell id="YMLBn4pS1Gdzr_e9DGU7-33" value="" style="rounded=0;whiteSpace=wrap;html=1;fillColor=none;" vertex="1" parent="1">
          <mxGeometry x="620" y="135" width="180" height="135" as="geometry" />
        </mxCell>
        <mxCell id="YMLBn4pS1Gdzr_e9DGU7-48" style="edgeStyle=orthogonalEdgeStyle;rounded=0;orthogonalLoop=1;jettySize=auto;html=1;startArrow=none;startFill=0;" edge="1" parent="1" source="YMLBn4pS1Gdzr_e9DGU7-36">
          <mxGeometry relative="1" as="geometry">
            <mxPoint x="720" y="280" as="targetPoint" />
          </mxGeometry>
        </mxCell>
        <mxCell id="YMLBn4pS1Gdzr_e9DGU7-36" value="" style="outlineConnect=0;fontColor=#232F3E;gradientColor=none;fillColor=#277116;strokeColor=none;dashed=0;verticalLabelPosition=bottom;verticalAlign=top;align=center;html=1;fontSize=12;fontStyle=0;aspect=fixed;pointerEvents=1;shape=mxgraph.aws4.iot_analytics_pipeline;" vertex="1" parent="1">
          <mxGeometry x="571" y="335.08" width="100" height="53.85" as="geometry" />
        </mxCell>
        <mxCell id="YMLBn4pS1Gdzr_e9DGU7-46" style="edgeStyle=orthogonalEdgeStyle;rounded=0;orthogonalLoop=1;jettySize=auto;html=1;entryX=0.005;entryY=0.63;entryDx=0;entryDy=0;entryPerimeter=0;startArrow=none;startFill=0;" edge="1" parent="1" source="YMLBn4pS1Gdzr_e9DGU7-37" target="YMLBn4pS1Gdzr_e9DGU7-1">
          <mxGeometry relative="1" as="geometry">
            <Array as="points">
              <mxPoint x="830" y="559" />
              <mxPoint x="830" y="790" />
              <mxPoint x="160" y="790" />
              <mxPoint x="160" y="389" />
            </Array>
          </mxGeometry>
        </mxCell>
        <mxCell id="YMLBn4pS1Gdzr_e9DGU7-37" value="" style="outlineConnect=0;fontColor=#232F3E;gradientColor=#F34482;gradientDirection=north;fillColor=#BC1356;strokeColor=#ffffff;dashed=0;verticalLabelPosition=bottom;verticalAlign=top;align=center;html=1;fontSize=12;fontStyle=0;aspect=fixed;shape=mxgraph.aws4.resourceIcon;resIcon=mxgraph.aws4.sqs;" vertex="1" parent="1">
          <mxGeometry x="671" y="520" width="78" height="78" as="geometry" />
        </mxCell>
        <mxCell id="YMLBn4pS1Gdzr_e9DGU7-50" style="edgeStyle=orthogonalEdgeStyle;rounded=0;orthogonalLoop=1;jettySize=auto;html=1;startArrow=none;startFill=0;" edge="1" parent="1" source="YMLBn4pS1Gdzr_e9DGU7-49">
          <mxGeometry relative="1" as="geometry">
            <mxPoint x="820" y="190.56499999999994" as="targetPoint" />
          </mxGeometry>
        </mxCell>
        <mxCell id="YMLBn4pS1Gdzr_e9DGU7-49" value="" style="aspect=fixed;html=1;points=[];align=center;image;fontSize=12;image=img/lib/mscae/Docker.svg;fillColor=none;" vertex="1" parent="1">
          <mxGeometry x="940" y="161.13" width="71.79" height="58.87" as="geometry" />
        </mxCell>
        <mxCell id="YMLBn4pS1Gdzr_e9DGU7-53" style="edgeStyle=orthogonalEdgeStyle;rounded=0;orthogonalLoop=1;jettySize=auto;html=1;startArrow=none;startFill=0;" edge="1" parent="1" source="YMLBn4pS1Gdzr_e9DGU7-51">
          <mxGeometry relative="1" as="geometry">
            <mxPoint x="980" y="230" as="targetPoint" />
          </mxGeometry>
        </mxCell>
        <mxCell id="YMLBn4pS1Gdzr_e9DGU7-51" value="" style="outlineConnect=0;fontColor=#232F3E;gradientColor=none;fillColor=#277116;strokeColor=none;dashed=0;verticalLabelPosition=bottom;verticalAlign=top;align=center;html=1;fontSize=12;fontStyle=0;aspect=fixed;pointerEvents=1;shape=mxgraph.aws4.iot_analytics_pipeline;" vertex="1" parent="1">
          <mxGeometry x="860" y="327.5" width="100" height="53.85" as="geometry" />
        </mxCell>
        <mxCell id="YMLBn4pS1Gdzr_e9DGU7-54" value="Cluster Workspace" style="text;html=1;align=center;verticalAlign=middle;resizable=0;points=[];autosize=1;" vertex="1" parent="1">
          <mxGeometry x="640" y="111.5" width="120" height="20" as="geometry" />
        </mxCell>
        <mxCell id="YMLBn4pS1Gdzr_e9DGU7-55" value="CD Pipeline" style="text;html=1;align=center;verticalAlign=middle;resizable=0;points=[];autosize=1;" vertex="1" parent="1">
          <mxGeometry x="671" y="368.93" width="80" height="20" as="geometry" />
        </mxCell>
        <mxCell id="YMLBn4pS1Gdzr_e9DGU7-56" value="CI Pipeline" style="text;html=1;align=center;verticalAlign=middle;resizable=0;points=[];autosize=1;" vertex="1" parent="1">
          <mxGeometry x="960" y="365" width="80" height="20" as="geometry" />
        </mxCell>
        <mxCell id="YMLBn4pS1Gdzr_e9DGU7-57" value="CD Webhook" style="text;html=1;align=center;verticalAlign=middle;resizable=0;points=[];autosize=1;" vertex="1" parent="1">
          <mxGeometry x="411.25" y="290" width="90" height="20" as="geometry" />
        </mxCell>
        <mxCell id="YMLBn4pS1Gdzr_e9DGU7-58" value="CI Webhook" style="text;html=1;align=center;verticalAlign=middle;resizable=0;points=[];autosize=1;" vertex="1" parent="1">
          <mxGeometry x="775" y="399" width="80" height="20" as="geometry" />
        </mxCell>
        <mxCell id="YMLBn4pS1Gdzr_e9DGU7-59" value="" style="shape=image;html=1;verticalAlign=top;verticalLabelPosition=bottom;labelBackgroundColor=#ffffff;imageAspect=0;aspect=fixed;image=https://cdn0.iconfinder.com/data/icons/social-glyph/30/github-120.png;imageBackground=#ffffff;" vertex="1" parent="1">
          <mxGeometry x="130" y="180.5" width="62.5" height="62.5" as="geometry" />
        </mxCell>
        <mxCell id="YMLBn4pS1Gdzr_e9DGU7-63" style="edgeStyle=orthogonalEdgeStyle;rounded=0;orthogonalLoop=1;jettySize=auto;html=1;startArrow=none;startFill=0;" edge="1" parent="1" source="YMLBn4pS1Gdzr_e9DGU7-61" target="YMLBn4pS1Gdzr_e9DGU7-51">
          <mxGeometry relative="1" as="geometry">
            <Array as="points">
              <mxPoint x="1070" y="559" />
              <mxPoint x="1070" y="355" />
            </Array>
          </mxGeometry>
        </mxCell>
        <mxCell id="YMLBn4pS1Gdzr_e9DGU7-61" value="" style="shadow=0;dashed=0;html=1;strokeColor=none;fillColor=#4495D1;labelPosition=center;verticalLabelPosition=bottom;verticalAlign=top;align=center;outlineConnect=0;shape=mxgraph.veeam.2d.web_ui;" vertex="1" parent="1">
          <mxGeometry x="932" y="507" width="98" height="103" as="geometry" />
        </mxCell>
        <mxCell id="YMLBn4pS1Gdzr_e9DGU7-67" style="edgeStyle=orthogonalEdgeStyle;rounded=0;orthogonalLoop=1;jettySize=auto;html=1;entryX=0;entryY=0.5;entryDx=0;entryDy=0;startArrow=none;startFill=0;" edge="1" parent="1" target="YMLBn4pS1Gdzr_e9DGU7-66">
          <mxGeometry relative="1" as="geometry">
            <mxPoint x="466.25" y="565" as="sourcePoint" />
            <Array as="points">
              <mxPoint x="480" y="565" />
              <mxPoint x="480" y="565" />
            </Array>
          </mxGeometry>
        </mxCell>
        <mxCell id="YMLBn4pS1Gdzr_e9DGU7-69" style="edgeStyle=orthogonalEdgeStyle;rounded=0;orthogonalLoop=1;jettySize=auto;html=1;startArrow=none;startFill=0;entryX=0.75;entryY=1;entryDx=0;entryDy=0;" edge="1" parent="1" source="YMLBn4pS1Gdzr_e9DGU7-66" target="YMLBn4pS1Gdzr_e9DGU7-23">
          <mxGeometry relative="1" as="geometry">
            <mxPoint x="534.5" y="480" as="targetPoint" />
            <Array as="points">
              <mxPoint x="535" y="477" />
            </Array>
          </mxGeometry>
        </mxCell>
        <mxCell id="YMLBn4pS1Gdzr_e9DGU7-71" style="edgeStyle=orthogonalEdgeStyle;rounded=0;orthogonalLoop=1;jettySize=auto;html=1;startArrow=none;startFill=0;" edge="1" parent="1" source="YMLBn4pS1Gdzr_e9DGU7-66" target="YMLBn4pS1Gdzr_e9DGU7-21">
          <mxGeometry relative="1" as="geometry">
            <Array as="points">
              <mxPoint x="535" y="660" />
            </Array>
          </mxGeometry>
        </mxCell>
        <mxCell id="YMLBn4pS1Gdzr_e9DGU7-66" value="" style="shape=image;html=1;verticalAlign=top;verticalLabelPosition=bottom;labelBackgroundColor=#ffffff;imageAspect=0;aspect=fixed;image=https://cdn4.iconfinder.com/data/icons/feather/24/git-commit-128.png;fillColor=none;" vertex="1" parent="1">
          <mxGeometry x="509.75" y="540.5" width="49.5" height="49.5" as="geometry" />
        </mxCell>
        <mxCell id="YMLBn4pS1Gdzr_e9DGU7-75" value="" style="shape=actor;whiteSpace=wrap;html=1;fillColor=none;" vertex="1" parent="1">
          <mxGeometry x="416.25" y="538" width="40" height="60" as="geometry" />
        </mxCell>
        <mxCell id="YMLBn4pS1Gdzr_e9DGU7-76" value="Commit" style="text;html=1;align=center;verticalAlign=middle;resizable=0;points=[];autosize=1;" vertex="1" parent="1">
          <mxGeometry x="530" y="620" width="60" height="20" as="geometry" />
        </mxCell>
        <mxCell id="YMLBn4pS1Gdzr_e9DGU7-77" value="Commit" style="text;html=1;align=center;verticalAlign=middle;resizable=0;points=[];autosize=1;" vertex="1" parent="1">
          <mxGeometry x="530" y="490" width="60" height="20" as="geometry" />
        </mxCell>
        <mxCell id="YMLBn4pS1Gdzr_e9DGU7-78" value="Webhook" style="text;html=1;align=center;verticalAlign=middle;resizable=0;points=[];autosize=1;" vertex="1" parent="1">
          <mxGeometry x="566" y="689" width="70" height="20" as="geometry" />
        </mxCell>
        <mxCell id="YMLBn4pS1Gdzr_e9DGU7-79" value="Webhook" style="text;html=1;align=center;verticalAlign=middle;resizable=0;points=[];autosize=1;" vertex="1" parent="1">
          <mxGeometry x="489.25" y="420.5" width="70" height="20" as="geometry" />
        </mxCell>
        <mxCell id="YMLBn4pS1Gdzr_e9DGU7-80" value="Tekton Dashboard" style="text;html=1;align=center;verticalAlign=middle;resizable=0;points=[];autosize=1;" vertex="1" parent="1">
          <mxGeometry x="920" y="620" width="120" height="20" as="geometry" />
        </mxCell>
        <mxCell id="YMLBn4pS1Gdzr_e9DGU7-81" value="ECR" style="text;html=1;align=center;verticalAlign=middle;resizable=0;points=[];autosize=1;" vertex="1" parent="1">
          <mxGeometry x="955.89" y="131.5" width="40" height="20" as="geometry" />
        </mxCell>
        <mxCell id="YMLBn4pS1Gdzr_e9DGU7-82" value="1" style="rounded=1;whiteSpace=wrap;html=1;fillColor=#007CBD;strokeColor=none;fontColor=#FFFFFF;fontStyle=1;fontSize=22;labelBackgroundColor=none;" vertex="1" parent="1">
          <mxGeometry x="200" y="610" width="40" height="38" as="geometry" />
        </mxCell>
        <mxCell id="YMLBn4pS1Gdzr_e9DGU7-83" value="2" style="rounded=1;whiteSpace=wrap;html=1;fillColor=#007CBD;strokeColor=none;fontColor=#FFFFFF;fontStyle=1;fontSize=22;labelBackgroundColor=none;" vertex="1" parent="1">
          <mxGeometry x="192.5" y="461" width="40" height="38" as="geometry" />
        </mxCell>
        <mxCell id="YMLBn4pS1Gdzr_e9DGU7-85" value="3" style="rounded=1;whiteSpace=wrap;html=1;fillColor=#007CBD;strokeColor=none;fontColor=#FFFFFF;fontStyle=1;fontSize=22;labelBackgroundColor=none;" vertex="1" parent="1">
          <mxGeometry x="100" y="250.13" width="40" height="38" as="geometry" />
        </mxCell>
        <mxCell id="YMLBn4pS1Gdzr_e9DGU7-86" value="4" style="rounded=1;whiteSpace=wrap;html=1;fillColor=#007CBD;strokeColor=none;fontColor=#FFFFFF;fontStyle=1;fontSize=22;labelBackgroundColor=none;" vertex="1" parent="1">
          <mxGeometry x="446.25" y="356" width="40" height="38" as="geometry" />
        </mxCell>
        <mxCell id="YMLBn4pS1Gdzr_e9DGU7-87" value="5" style="rounded=1;whiteSpace=wrap;html=1;fillColor=#007CBD;strokeColor=none;fontColor=#FFFFFF;fontStyle=1;fontSize=22;labelBackgroundColor=none;" vertex="1" parent="1">
          <mxGeometry x="565" y="526" width="40" height="38" as="geometry" />
        </mxCell>
        <mxCell id="YMLBn4pS1Gdzr_e9DGU7-88" value="6" style="rounded=1;whiteSpace=wrap;html=1;fillColor=#007CBD;strokeColor=none;fontColor=#FFFFFF;fontStyle=1;fontSize=22;labelBackgroundColor=none;" vertex="1" parent="1">
          <mxGeometry x="571" y="805" width="40" height="38" as="geometry" />
        </mxCell>
        <mxCell id="YMLBn4pS1Gdzr_e9DGU7-89" value="7" style="rounded=1;whiteSpace=wrap;html=1;fillColor=#007CBD;strokeColor=none;fontColor=#FFFFFF;fontStyle=1;fontSize=22;labelBackgroundColor=none;" vertex="1" parent="1">
          <mxGeometry x="509.75" y="272" width="40" height="38" as="geometry" />
        </mxCell>
        <mxCell id="YMLBn4pS1Gdzr_e9DGU7-92" value="8" style="rounded=1;whiteSpace=wrap;html=1;fillColor=#007CBD;strokeColor=none;fontColor=#FFFFFF;fontStyle=1;fontSize=22;labelBackgroundColor=none;" vertex="1" parent="1">
          <mxGeometry x="990" y="270" width="40" height="38" as="geometry" />
        </mxCell>
        <mxCell id="YMLBn4pS1Gdzr_e9DGU7-93" value="9" style="rounded=1;whiteSpace=wrap;html=1;fillColor=#007CBD;strokeColor=none;fontColor=#FFFFFF;fontStyle=1;fontSize=22;labelBackgroundColor=none;" vertex="1" parent="1">
          <mxGeometry x="730" y="297.08" width="40" height="38" as="geometry" />
        </mxCell>
        <mxCell id="YMLBn4pS1Gdzr_e9DGU7-94" value="9" style="rounded=1;whiteSpace=wrap;html=1;fillColor=#007CBD;strokeColor=none;fontColor=#FFFFFF;fontStyle=1;fontSize=22;labelBackgroundColor=none;" vertex="1" parent="1">
          <mxGeometry x="855" y="195" width="40" height="38" as="geometry" />
        </mxCell>
        <mxCell id="YMLBn4pS1Gdzr_e9DGU7-95" value="10" style="rounded=1;whiteSpace=wrap;html=1;fillColor=#007CBD;strokeColor=none;fontColor=#FFFFFF;fontStyle=1;fontSize=22;labelBackgroundColor=none;" vertex="1" parent="1">
          <mxGeometry x="970" y="653.75" width="40" height="38" as="geometry" />
        </mxCell>
        <mxCell id="YMLBn4pS1Gdzr_e9DGU7-98" value="CLI Submits to Devhub" style="text;html=1;align=left;verticalAlign=top;spacingTop=-4;fontSize=14;labelBackgroundColor=none;whiteSpace=wrap;" vertex="1" parent="1">
          <mxGeometry x="1220.5" y="187" width="449" height="118" as="geometry" />
        </mxCell>
        <mxCell id="YMLBn4pS1Gdzr_e9DGU7-99" value="3" style="rounded=1;whiteSpace=wrap;html=1;fillColor=#007CBD;strokeColor=none;fontColor=#FFFFFF;fontStyle=1;fontSize=22;labelBackgroundColor=none;" vertex="1" parent="1">
          <mxGeometry x="100" y="250.13" width="40" height="38" as="geometry" />
        </mxCell>
        <mxCell id="YMLBn4pS1Gdzr_e9DGU7-100" value="3" style="rounded=1;whiteSpace=wrap;html=1;fillColor=#007CBD;strokeColor=none;fontColor=#FFFFFF;fontStyle=1;fontSize=22;labelBackgroundColor=none;" vertex="1" parent="1">
          <mxGeometry x="490" y="152" width="40" height="38" as="geometry" />
        </mxCell>
        <mxCell id="YMLBn4pS1Gdzr_e9DGU7-102" value="Devhub creates product workspaces on the cluster and creates Gitops repository" style="text;html=1;align=left;verticalAlign=top;spacingTop=-4;fontSize=14;labelBackgroundColor=none;whiteSpace=wrap;" vertex="1" parent="1">
          <mxGeometry x="1220.5" y="303" width="449" height="118" as="geometry" />
        </mxCell>
        <mxCell id="YMLBn4pS1Gdzr_e9DGU7-103" value="Devhub creates product workspaces on the cluster and creates Gitops repository" style="text;html=1;align=left;verticalAlign=top;spacingTop=-4;fontSize=14;labelBackgroundColor=none;whiteSpace=wrap;" vertex="1" parent="1">
          <mxGeometry x="1220.5" y="303" width="449" height="118" as="geometry" />
        </mxCell>
        <mxCell id="YMLBn4pS1Gdzr_e9DGU7-104" value="Devhub adds webhooks to gitops and app repos" style="text;html=1;align=left;verticalAlign=top;spacingTop=-4;fontSize=14;labelBackgroundColor=none;whiteSpace=wrap;" vertex="1" parent="1">
          <mxGeometry x="1220.5" y="419" width="449" height="118" as="geometry" />
        </mxCell>
        <mxCell id="YMLBn4pS1Gdzr_e9DGU7-105" value="User makes Gitops or App commits. Commits get pushed to SQS queue " style="text;html=1;align=left;verticalAlign=top;spacingTop=-4;fontSize=14;labelBackgroundColor=none;whiteSpace=wrap;" vertex="1" parent="1">
          <mxGeometry x="1220.5" y="536" width="449" height="118" as="geometry" />
        </mxCell>
        <mxCell id="YMLBn4pS1Gdzr_e9DGU7-106" value="SQS pushes to Devhub" style="text;html=1;align=left;verticalAlign=top;spacingTop=-4;fontSize=14;labelBackgroundColor=none;whiteSpace=wrap;" vertex="1" parent="1">
          <mxGeometry x="1220.5" y="648" width="449" height="118" as="geometry" />
        </mxCell>
        <mxCell id="YMLBn4pS1Gdzr_e9DGU7-107" value="Devhub triggers CI or CD pipeline depending on repository" style="text;html=1;align=left;verticalAlign=top;spacingTop=-4;fontSize=14;labelBackgroundColor=none;whiteSpace=wrap;" vertex="1" parent="1">
          <mxGeometry x="1220.5" y="767" width="449" height="118" as="geometry" />
        </mxCell>
        <mxCell id="YMLBn4pS1Gdzr_e9DGU7-108" value="CI executes build-test-package workflow and pushes to ECR. Updates new commit to Gitops. Gitops triggers new webhook. Devhub triggers CD pipeline" style="text;html=1;align=left;verticalAlign=top;spacingTop=-4;fontSize=14;labelBackgroundColor=none;whiteSpace=wrap;" vertex="1" parent="1">
          <mxGeometry x="1220.5" y="887" width="449" height="118" as="geometry" />
        </mxCell>
        <mxCell id="YMLBn4pS1Gdzr_e9DGU7-109" value="CD pipeline sync Gitops content to cluster. Cluster also consumes last build image" style="text;html=1;align=left;verticalAlign=top;spacingTop=-4;fontSize=14;labelBackgroundColor=none;whiteSpace=wrap;" vertex="1" parent="1">
          <mxGeometry x="1220" y="1000" width="449" height="118" as="geometry" />
        </mxCell>
        <mxCell id="YMLBn4pS1Gdzr_e9DGU7-110" value="User monitors pipeline content via Tekton Dashboard" style="text;html=1;align=left;verticalAlign=top;spacingTop=-4;fontSize=14;labelBackgroundColor=none;whiteSpace=wrap;" vertex="1" parent="1">
          <mxGeometry x="1220" y="1123" width="449" height="118" as="geometry" />
        </mxCell>
      </root>
    </mxGraphModel>
  </diagram>
</mxfile>
